<?xml version="1.0" encoding="UTF-8"?>
<svg id="_레이어_2" data-name="레이어 2" xmlns="http://www.w3.org/2000/svg" viewBox="0 0 34.85 32.48">
  <defs>
    <style>
      .cls-1 {
        fill: #005982;
      }
    </style>
  </defs>
  <g id="_레이어_1-2" data-name="레이어 1">
    <path class="cls-1" d="M34.85,1.12c0-.62-.5-1.12-1.12-1.12H5.46C2.45,0,0,2.45,0,5.46v25.9c0,.62.5,1.12,1.12,1.12h27.49c2.14,0,4.02-1.11,5.11-2.78.72-1.04,1.14-2.3,1.14-3.65V1.12ZM14.52,5.62h-3.1v-3.38h3.1v3.38ZM11.41,7.85h3.1v22.39h-3.1V7.85ZM16.75,2.23h2.77v12.89h-2.77V2.23ZM21.75,2.23h2.78v12.89h-2.78V2.23ZM32.62,9.71l-5.85,2.29v-4.15h5.85v1.86ZM26.77,14.39l5.85-2.29v3.02h-5.85v-.73ZM32.62,5.62h-5.85v-3.38h5.85v3.38ZM5.46,2.23h3.72v12.89H2.23V5.46c0-1.78,1.45-3.23,3.23-3.23ZM2.23,17.35h6.95v12.89H2.23v-12.89ZM16.75,30.24v-12.89h15.87v3.49h-8.18c-3.36,0-6.09,2.73-6.09,6.09v3.31h-1.61ZM20.59,30.24v-3.31c0-2.13,1.73-3.86,3.86-3.86h8.02v3.31c0,.76-.22,1.46-.6,2.06-.76,1.09-2.02,1.8-3.44,1.8h-7.83Z"/>
  </g>
</svg>